# xmcd CD database file
#
# Track frame offsets:
#	150
#	28900
#	62552
#	92705
#	122977
#	154427
#	185650
#	213340
#
# Disc length: 3219 seconds
#
# Revision: 3
# Processed by: cddbd v1.5.2PL0 Copyright (c) Steve Scherf et al.
# Submitted via: CDex 1.81
#
DISCID=740c9108
DTITLE=Manhattan Jazz Orchestra - Swing, Swing, Swing
DYEAR=2006
DGENRE=Jazz
TTITLE0=Ironside
TTITLE1=Swing, Swing, Swing
TTITLE2=Jumpin' At The Woodside
TTITLE3=Moonlight Serenade
TTITLE4=Take The A Train
TTITLE5=Ai No Corrida
TTITLE6=Manteca
TTITLE7=Stompin' At The Savoy
EXTD=YEAR: 2006
EXTT0=
EXTT1=
EXTT2=
EXTT3=
EXTT4=
EXTT5=
EXTT6=
EXTT7=
PLAYORDER=
